<svg xmlns="http://www.w3.org/2000/svg" viewBox="0 0 360 250" role="img" aria-labelledby="title desc">
  <title id="title">집중선 속마음 말풍선</title>
  <desc id="desc">보이지 않는 타원 둘레에 수직으로 배치된 촘촘한 방사선이 속마음 공간을 만드는 말풍선</desc>
  <ellipse cx="180" cy="125" rx="122.8" ry="76.2" fill="#fff" />
  <path
    d="M302.3 127.1L331.7 128.4 M302.2 131.9L328.4 135.7 M301.7 136.4L334.1 144.3 M300.4 141.7L332.9 153.4 M297.9 146.0L330.8 161.3 M295.4 150.3L322.0 165.6 M293.1 154.3L317.1 170.6 M290.7 158.5L314.7 177.4 M287.1 161.8L305.3 178.1 M283.1 166.0L303.8 187.5 M280.1 169.6L303.7 196.7 M276.3 171.8L291.2 190.6 M272.1 175.8L292.3 204.7 M267.9 178.1L280.2 197.5 M264.0 180.5L276.6 202.1 M259.4 183.7L270.3 204.6 M254.7 184.9L268.1 212.9 M250.3 187.2L263.5 217.7 M246.0 189.0L254.8 211.3 M241.3 190.5L251.4 218.8 M236.5 192.6L244.8 218.6 M232.7 194.3L239.0 216.0 M227.9 195.7L233.9 218.4 M222.1 196.8L227.0 218.3 M217.9 197.5L224.4 229.9 M212.4 198.4L218.1 232.2 M208.2 199.0L211.5 221.5 M202.7 200.1L205.9 228.1 M197.8 200.7L200.4 229.6 M192.5 200.8L194.2 228.0 M187.8 201.5L188.9 228.6 M182.7 201.6L183.0 224.4 M177.7 201.2L177.5 224.2 M172.6 200.8L171.5 230.5 M167.8 200.6L165.9 231.5 M163.2 200.7L161.3 222.7 M158.1 199.6L155.3 224.4 M153.9 199.6L150.8 223.2 M148.2 198.8L144.3 222.0 M143.6 197.4L137.8 227.7 M139.2 196.6L133.1 224.6 M133.5 196.0L126.2 224.7 M128.7 194.5L120.4 223.9 M124.5 192.7L114.1 225.8 M120.0 190.9L112.2 213.2 M115.5 190.3L107.3 211.8 M110.8 187.6L100.2 212.8 M106.4 186.3L91.9 217.8 M101.9 184.0L86.7 213.7 M97.3 181.0L84.0 204.5 M93.7 178.6L74.6 209.6 M88.9 175.8L74.3 197.0 M84.8 173.7L65.6 199.1 M80.8 170.0L60.7 193.8 M77.6 167.1L53.5 192.8 M73.7 163.0L55.2 180.2 M70.1 159.6L45.5 179.7 M67.7 155.5L46.0 170.9 M64.6 152.0L40.7 166.5 M62.7 147.2L38.0 159.5 M60.5 142.3L31.1 153.4 M59.4 138.1L19.9 149.3 M58.1 132.6L24.2 138.1 M57.7 128.5L26.5 130.8 M56.9 123.4L19.9 122.2 M58.0 118.4L17.3 112.6 M58.9 113.2L27.9 105.2 M60.6 108.6L35.0 99.4 M62.1 103.8L34.4 90.9 M64.6 99.7L35.4 83.0 M67.0 95.9L44.5 80.7 M70.0 91.9L40.6 68.8 M73.1 87.7L53.3 69.7 M76.1 83.7L50.4 57.2 M80.5 81.0L60.4 57.7 M83.8 77.9L63.8 52.3 M87.2 74.6L70.5 51.1 M92.2 72.0L79.6 52.1 M96.1 69.9L78.8 40.1 M100.7 66.8L87.0 40.7 M104.6 64.5L93.8 41.9 M109.7 62.0L98.5 35.9 M114.2 60.4L104.6 36.1 M118.5 58.8L110.5 36.5 M122.6 57.3L114.1 31.3 M127.7 56.0L120.0 29.4 M132.7 54.4L124.0 20.6 M138.0 53.7L132.6 29.6 M142.9 52.5L137.5 24.9 M147.8 51.9L144.1 29.9 M151.9 50.7L147.0 17.3 M157.1 50.1L154.0 23.7 M161.5 49.4L159.0 23.6 M167.0 49.4L165.0 18.8 M172.0 49.2L171.0 24.8 M177.1 48.9L176.7 18.2 M181.9 48.5L182.2 14.8 M186.7 48.8L187.8 16.9 M192.3 49.1L193.9 23.5 M196.2 49.5L198.5 21.6 M201.8 49.6L205.2 18.4 M205.8 51.1L210.2 18.6 M211.5 51.2L215.3 27.8 M216.3 52.3L222.3 20.8 M220.8 52.6L226.6 26.2 M225.5 54.7L233.3 23.1 M230.5 55.7L237.5 30.5 M235.6 56.8L244.1 29.6 M240.6 58.2L251.5 27.1 M244.4 59.9L256.5 28.2 M248.9 62.1L259.0 38.1 M253.8 64.0L268.6 32.2 M258.4 66.2L271.7 40.4 M262.4 68.7L278.2 40.7 M266.8 70.7L280.6 48.3 M270.6 74.1L287.5 49.3 M275.0 76.9L290.2 56.9 M279.5 80.0L296.1 60.5 M282.5 83.6L307.6 57.0 M286.4 86.2L309.4 64.5 M289.6 90.5L308.9 74.6 M293.0 94.4L323.6 72.9 M295.4 98.3L317.8 84.9 M297.9 102.6L323.9 89.8 M300.0 107.1L333.1 94.4 M301.0 111.8L334.9 102.3 M302.7 116.9L341.5 110.2 M303.0 121.7L344.6 118.8"
    fill="none"
    stroke="#171717"
    stroke-width="2"
    stroke-linecap="round"
    stroke-linejoin="round"
    vector-effect="non-scaling-stroke"
  />
</svg>
