<svg xmlns="http://www.w3.org/2000/svg" viewBox="0 0 360 250" role="img" aria-labelledby="title desc" shape-rendering="geometricPrecision">
  <title id="title">집중선 속마음 말풍선</title>
  <desc id="desc">가상의 타원 중심을 따라 초미세 방사선이 안쪽으로 희미하게 스며들고 바깥쪽으로 뾰족하게 뻗는 속마음 말풍선</desc>
  <defs>
    <filter id="soft-fill" x="-5%" y="-8%" width="110%" height="116%" color-interpolation-filters="sRGB">
      <feGaussianBlur stdDeviation="0.7" />
    </filter>
    <filter id="inner-haze" x="-8%" y="-12%" width="116%" height="124%" color-interpolation-filters="sRGB">
      <feGaussianBlur stdDeviation="0.55" />
    </filter>
  </defs>
  <ellipse cx="180" cy="125" rx="123.3" ry="76.3" fill="#fff" filter="url(#soft-fill)" />
  <path
    d="
      M298.43 124.96L304.01 125.22L304.01 124.69Z M296.98 126.26L303.95 126.68L303.96 126.28Z M297.51 127.68L303.91 128.29L303.94 127.89Z M298.07 129.03L303.71 129.82L303.76 129.32Z M297.27 130.27L303.61 131.27L303.66 130.91Z M299.03 131.87L303.34 132.83L303.43 132.29Z M299.98 133.5L303.07 134.39L303.18 133.82Z M296.97 134.26L302.85 135.77L302.93 135.4Z M297.72 135.88L302.35 137.34L302.49 136.82Z M296.68 136.96L301.99 138.75L302.13 138.25Z
      M298.56 139L301.54 140.17L301.66 139.78Z M297.01 139.94L301.12 141.65L301.29 141.18Z M297.49 141.63L300.48 143.07L300.68 142.56Z M295.33 142.36L299.97 144.54L300.14 144.13Z M294.23 143.3L299.4 145.83L299.56 145.48Z M294.39 144.91L298.67 147.27L298.9 146.78Z M294.85 146.7L298.06 148.59L298.26 148.2Z M293.48 147.61L297.27 150.01L297.55 149.52Z M291.04 147.88L296.49 151.34L296.74 150.9Z M290.14 148.84L295.83 152.62L296.09 152.19Z
      M292.18 151.78L294.94 153.91L295.26 153.42Z M289 151.37L294.15 155.15L294.42 154.76Z M290.28 154.02L293.17 156.42L293.48 155.98Z M289.26 155.05L292.26 157.65L292.6 157.19Z M287.76 155.77L291.33 158.84L291.59 158.51Z M285.2 155.42L290.45 160L290.74 159.64Z M285.83 157.76L289.48 161.19L289.8 160.82Z M285.44 159.34L288.45 162.36L288.79 161.97Z M283.04 159.14L287.44 163.46L287.7 163.18Z M282.62 160.69L286.32 164.53L286.62 164.23Z
      M283.15 163.15L285.31 165.61L285.62 165.29Z M279.54 161.55L284.25 166.68L284.52 166.42Z M278.78 162.81L283.11 167.73L283.4 167.46Z M278.77 164.89L281.96 168.81L282.34 168.47Z M277.94 166.13L280.84 169.81L281.19 169.5Z M276.37 166.52L279.69 170.86L280.09 170.52Z M275.43 167.67L278.44 171.8L278.87 171.44Z M274.18 168.48L277.19 172.74L277.63 172.39Z M273.39 169.73L276.09 173.63L276.44 173.36Z M271.23 169.21L274.9 174.59L275.32 174.29Z
      M270.74 171.1L273.56 175.52L274.03 175.19Z M270.29 172.98L272.34 176.46L272.83 176.12Z M269.19 173.99L271.07 177.28L271.54 176.96Z M268.01 174.81L269.89 178.04L270.22 177.83Z M265.05 172.83L268.64 178.83L268.98 178.61Z M264.03 173.92L267.37 179.66L267.69 179.47Z M264.2 176.95L266.01 180.42L266.41 180.18Z M262.55 177.12L264.68 181.17L265.03 180.97Z M261.21 177.77L263.39 181.99L263.71 181.81Z M260.6 179.68L262.01 182.74L262.42 182.52Z
      M258.02 177.97L260.62 183.45L261.13 183.17Z M257.51 180.15L259.33 184.15L259.73 183.94Z M255.57 179.56L257.94 184.9L258.46 184.63Z M254.2 180.2L256.57 185.5L256.93 185.33Z M252.75 180.56L255.13 186.18L255.6 185.96Z M251.29 180.62L253.88 186.91L254.41 186.66Z M250.32 182.21L252.44 187.45L252.83 187.27Z M249.57 183.93L251.14 188.14L251.59 187.94Z M248.23 184.58L249.68 188.65L250.16 188.45Z M246.41 184.29L248.21 189.29L248.65 189.11Z
      M245.78 186.5L246.89 189.85L247.29 189.7Z M243.57 185.1L245.4 190.44L245.82 190.28Z M242.69 186.94L243.94 191.04L244.45 190.85Z M240.75 185.93L242.56 191.48L242.93 191.35Z M239.54 186.79L241.11 192.03L241.61 191.85Z M238.72 188.77L239.73 192.41L240.16 192.27Z M237.27 189.14L238.25 192.92L238.74 192.76Z M235.21 187.8L236.78 193.43L237.22 193.28Z M234.01 188.84L235.29 193.87L235.81 193.71Z M232.52 188.81L233.94 194.27L234.35 194.14Z
      M231.18 189.53L232.5 194.74L232.86 194.63Z M230.17 191.42L230.99 195.17L231.44 195.05Z M228.68 191.56L229.56 195.58L229.97 195.47Z M226.77 190.03L228.13 195.95L228.5 195.85Z M225.25 190.45L226.53 196.35L226.92 196.25Z M224.23 192.1L225.05 196.72L225.62 196.58Z M222.49 191.15L223.66 197.13L224.1 197.03Z M220.97 191.47L222.05 197.45L222.57 197.33Z M219.9 193.33L220.54 197.71L221.12 197.59Z M218.5 193.88L219.14 198.13L219.59 198.03Z
      M216.85 193.08L217.65 198.43L218.16 198.33Z M215.67 195.32L216.02 198.65L216.56 198.54Z M213.85 193.47L214.59 199L215.11 198.91Z M212.56 194.89L213.11 199.19L213.48 199.12Z M210.86 193.29L211.6 199.41L212.13 199.32Z M209.73 195.95L210.12 199.66L210.49 199.6Z M207.85 193.16L208.61 199.85L209.06 199.79Z M206.49 193.91L207.08 200.09L207.62 200.01Z M205.24 196.1L205.54 200.38L206.05 200.31Z M203.86 197.29L204.06 200.58L204.47 200.52Z
      M202.1 194.2L202.66 200.73L203.06 200.68Z M200.64 194.86L201.07 200.91L201.52 200.86Z M199.33 195.89L199.56 201.1L200.14 201.05Z M197.9 196.57L198.1 201.13L198.54 201.09Z M196.27 195.42L196.54 201.31L196.99 201.27Z M194.71 194.53L195.05 201.47L195.43 201.44Z M193.29 195.49L193.49 201.54L193.92 201.51Z M191.85 195.38L191.96 201.6L192.52 201.57Z M190.35 195.51L190.46 201.77L190.91 201.75Z M188.77 195.07L188.87 201.79L189.28 201.77Z
      M187.4 195.13L187.36 201.83L187.94 201.8Z M186.01 197.66L185.95 201.92L186.33 201.9Z M184.41 198.26L184.26 201.91L184.73 201.89Z M182.95 196.55L182.82 201.96L183.24 201.96Z M181.43 198.86L181.25 202.02L181.67 202.02Z M179.97 196.62L179.67 201.94L180.26 201.94Z M178.52 198.82L178.32 201.98L178.68 201.99Z M176.95 198.77L176.65 201.9L177.14 201.91Z M175.6 196.16L175.19 201.95L175.75 201.97Z M174.08 196.92L173.67 201.92L174.19 201.94Z
      M172.69 195.19L172.14 201.8L172.73 201.83Z M171.12 196.32L170.67 201.79L171.06 201.81Z M169.6 196.62L169.06 201.74L169.59 201.77Z M168.25 194.78L167.61 201.67L168.03 201.69Z M166.61 196.18L166.02 201.44L166.46 201.47Z M165.06 198.05L164.63 201.36L164.99 201.39Z M163.84 194.61L163.03 201.21L163.53 201.26Z M162.28 194.88L161.48 201.18L161.9 201.22Z M160.55 197.12L159.94 200.95L160.38 201Z M159.36 194.62L158.49 200.89L158.87 200.93Z
      M157.85 195.07L156.99 200.68L157.4 200.72Z M156.58 193.75L155.51 200.53L155.97 200.58Z M154.93 194.72L153.97 200.23L154.42 200.29Z M153.48 194.35L152.49 200.03L152.86 200.08Z M152 193.77L150.88 199.81L151.3 199.87Z M150.7 193.17L149.43 199.67L149.92 199.74Z M148.78 195.71L147.91 199.35L148.44 199.44Z M147.67 193.31L146.37 199.1L146.94 199.2Z M146.04 194.24L144.92 198.8L145.49 198.9Z M144.88 192.26L143.39 198.56L143.95 198.67Z
      M143.25 192.95L141.88 198.32L142.46 198.44Z M141.88 191.87L140.39 197.91L140.83 198Z M140.43 191.66L138.84 197.63L139.41 197.76Z M138.39 193.94L137.35 197.32L137.87 197.44Z M137.37 191.92L135.92 196.94L136.44 197.07Z M135.72 192.61L134.54 196.67L134.9 196.76Z M134.28 192.36L133.06 196.28L133.49 196.39Z M132.74 192.27L131.58 195.93L131.95 196.03Z M131.8 189.97L130.12 195.45L130.48 195.54Z M130.15 190.24L128.56 195.05L129 195.17Z
      M128.79 189.67L127.1 194.71L127.51 194.83Z M127.89 187.6L125.64 194.2L126.11 194.34Z M126.21 187.93L124.13 193.76L124.61 193.91Z M124.22 189.68L122.78 193.35L123.25 193.5Z M122.58 189.64L121.32 192.85L121.67 192.97Z M121.09 189.37L119.86 192.4L120.2 192.52Z M120.62 186.19L118.39 191.86L118.78 192Z M118.88 186.75L116.94 191.26L117.46 191.45Z M116.98 187.7L115.5 190.82L116.04 191.03Z M116.56 184.66L114.18 190.27L114.53 190.41Z
      M114.57 185.72L112.77 189.67L113.15 189.83Z M113.82 183.63L111.26 189.09L111.8 189.31Z M112.76 182.27L109.8 188.5L110.33 188.73Z M110.08 184.85L108.46 187.84L108.99 188.07Z M108.93 183.91L107.15 187.33L107.56 187.52Z M107.69 183.02L105.78 186.64L106.17 186.82Z M106.54 181.78L104.27 186L104.69 186.2Z M104.97 181.87L102.96 185.36L103.44 185.6Z M104.64 179.08L101.58 184.62L101.99 184.83Z M103.58 177.96L100.17 183.91L100.67 184.17Z
      M100.63 180.59L98.97 183.26L99.33 183.45Z M100.88 176.86L97.54 182.44L97.94 182.66Z M99.67 176.07L96.2 181.7L96.62 181.94Z M97.54 177.06L94.99 180.98L95.38 181.21Z M95.42 177.64L93.65 180.24L93.96 180.42Z M94.14 176.85L92.19 179.45L92.68 179.75Z M94.47 173.54L90.96 178.61L91.36 178.87Z M92.15 174.48L89.73 177.83L90.04 178.03Z M91.69 172.61L88.46 177L88.81 177.24Z M90.21 172.2L87.24 176.08L87.59 176.32Z
      M88.61 171.96L85.96 175.2L86.39 175.51Z M86.96 171.62L84.72 174.24L85.1 174.53Z M87.63 168.4L83.55 173.36L83.9 173.64Z M86.28 167.73L82.31 172.42L82.63 172.68Z M83.62 168.84L81.17 171.43L81.58 171.77Z M83.59 166.5L80.01 170.46L80.29 170.7Z M81.28 166.99L78.83 169.52L79.1 169.76Z M81.56 164.62L77.74 168.51L78.08 168.82Z M79.69 164.46L76.53 167.52L76.85 167.82Z M79.26 162.76L75.46 166.37L75.78 166.68Z
      M78.96 161.06L74.38 165.35L74.64 165.61Z M76.38 161.68L73.32 164.26L73.68 164.63Z M76.3 159.69L72.16 163.1L72.57 163.54Z M75.73 158.36L71.34 162.02L71.58 162.29Z M75.51 156.74L70.26 160.9L70.57 161.27Z M72.92 157.02L69.33 159.7L69.57 160.01Z M72.66 155.33L68.26 158.44L68.58 158.85Z M70.22 155.45L67.38 157.25L67.69 157.66Z M72.2 152.23L66.53 155.95L66.85 156.39Z M71.16 151.27L65.62 154.72L65.92 155.15Z
      M70.68 150.02L64.88 153.5L65.13 153.88Z M67.88 150.11L63.99 152.22L64.24 152.62Z M68.01 148.44L63.2 150.92L63.48 151.4Z M67.83 146.87L62.46 149.5L62.72 149.96Z M66.71 145.92L61.75 148.13L62.02 148.65Z M64.76 145.39L61.17 146.92L61.32 147.25Z M66.47 143.01L60.4 145.49L60.58 145.89Z M63.08 142.95L59.86 144L60.07 144.49Z M63.53 141.3L59.25 142.66L59.44 143.15Z M62.38 140.21L58.82 141.18L59.01 141.69Z
      M62.18 138.82L58.36 139.76L58.52 140.27Z M63.52 136.91L57.79 138.27L57.94 138.79Z M61.31 136.12L57.43 136.92L57.53 137.3Z M61.26 134.7L57.12 135.32L57.25 135.9Z M62.47 133L56.8 133.79L56.91 134.35Z M63.08 131.57L56.54 132.43L56.6 132.79Z M62.48 130.29L56.33 130.83L56.39 131.31Z M59.74 129.21L56.17 129.33L56.21 129.76Z M62.77 127.64L56.1 127.81L56.14 128.32Z M62.45 126.29L55.96 126.29L55.98 126.69Z
      M61.41 124.99L56.02 124.77L56.02 125.2Z M60.53 123.64L56.02 123.26L56.01 123.73Z M60.97 122.26L56.18 121.76L56.15 122.14Z M59.56 120.75L56.29 120.25L56.25 120.62Z M62.83 119.71L56.41 118.64L56.35 119.14Z M60.55 118.04L56.69 117.23L56.63 117.61Z M63.67 117.21L56.86 115.67L56.77 116.13Z M63.49 115.87L57.16 114.24L57.06 114.65Z M63.27 114.43L57.57 112.73L57.45 113.2Z M61 112.33L58.02 111.19L57.87 111.7Z
      M61.97 111.17L58.47 109.75L58.3 110.29Z M63.29 110.15L58.92 108.32L58.73 108.85Z M62.67 108.42L59.46 106.93L59.29 107.37Z M65.63 108.08L60 105.43L59.78 105.95Z M66.53 106.97L60.69 104.14L60.54 104.47Z M66.55 105.52L61.34 102.76L61.14 103.18Z M67.02 104.23L61.98 101.37L61.76 101.79Z M67.77 103.03L62.76 99.99L62.51 100.45Z M67.44 101.24L63.54 98.64L63.25 99.14Z M68.95 100.52L64.21 97.33L63.96 97.74Z
      M69.11 99.06L65 96.18L64.8 96.49Z M68.97 97.22L65.86 94.8L65.58 95.21Z M69.9 96.05L66.78 93.52L66.49 93.91Z M70.83 95L67.7 92.3L67.35 92.76Z M71.75 93.9L68.58 91.15L68.33 91.47Z M72.35 92.58L69.6 90L69.27 90.41Z M74.54 92.53L70.55 88.88L70.3 89.18Z M75.64 91.65L71.56 87.74L71.28 88.06Z M75.11 89.12L72.65 86.46L72.27 86.87Z M76.18 88.22L73.58 85.39L73.25 85.74Z
      M77.13 87.11L74.74 84.33L74.34 84.74Z M78.7 86.63L75.74 83.26L75.42 83.57Z M81.48 87.39L76.95 82.11L76.52 82.5Z M80.09 83.85L77.99 81.18L77.65 81.48Z M82.94 84.87L79.18 80.13L78.76 80.5Z M83.68 83.47L80.38 79.08L79.92 79.47Z M85.16 83L81.57 78.15L81.13 78.5Z M85.13 80.75L82.66 77.24L82.28 77.54Z M86.49 80.15L83.92 76.35L83.49 76.68Z M86.95 78.24L85.16 75.38L84.72 75.7Z
      M88.55 77.94L86.34 74.54L86.03 74.76Z M89.33 76.46L87.62 73.59L87.22 73.86Z M91.23 76.72L88.9 72.82L88.48 73.11Z M92.18 75.6L90.11 72L89.7 72.26Z M93.01 74.05L91.42 71.09L90.99 71.36Z M95.69 75.61L92.7 70.35L92.33 70.58Z M95.85 73.18L93.97 69.58L93.56 69.83Z M96.94 71.92L95.35 68.75L94.96 68.98Z M99.23 72.95L96.64 67.92L96.26 68.14Z M99.52 70.64L97.89 67.23L97.51 67.44Z
      M101.66 71.37L99.34 66.52L98.92 66.74Z M102.79 70.35L100.7 65.79L100.27 66.01Z M104.23 70.06L102 65.17L101.62 65.36Z M105.94 70.21L103.32 64.44L102.98 64.6Z M106.22 67.37L104.8 63.81L104.36 64.02Z M108.71 69.15L106.17 63.17L105.8 63.34Z M109.94 68.57L107.47 62.62L107.12 62.78Z M110.52 66.2L108.95 61.85L108.4 62.09Z M111.54 64.66L110.42 61.25L109.87 61.49Z M113.28 65.19L111.68 60.77L111.31 60.93Z
      M115.34 66.44L113.12 60.19L112.64 60.38Z M116.08 64.1L114.61 59.62L114.14 59.81Z M117.63 64.12L115.98 59.1L115.56 59.26Z M118.5 62.07L117.48 58.44L116.96 58.63Z M119.65 61.08L118.79 58.05L118.41 58.19Z M121.09 60.66L120.27 57.56L119.84 57.71Z M123.5 62.91L121.74 57.01L121.39 57.13Z M124.41 61.24L123.1 56.54L122.73 56.66Z M125.62 60.09L124.61 56.08L124.16 56.22Z M127.71 61.59L126.18 55.62L125.68 55.77Z
      M128.91 60.67L127.53 55.21L127.15 55.33Z M129.95 58.82L129.02 54.78L128.64 54.88Z M131.28 58.15L130.54 54.37L130.01 54.51Z M132.86 58.25L131.99 54L131.53 54.12Z M134.11 57.23L133.5 53.65L132.94 53.8Z M136.26 59.68L134.89 53.23L134.52 53.32Z M137.25 57.63L136.45 52.94L135.88 53.07Z M138.33 55.81L137.8 52.58L137.42 52.67Z M140 56.5L139.38 52.29L138.82 52.42Z M141.32 55.21L140.87 51.95L140.44 52.04Z
      M142.85 55.18L142.4 51.68L141.92 51.78Z M144.26 54.67L143.88 51.32L143.38 51.42Z M145.72 54.49L145.33 51.1L144.89 51.18Z M147.55 55.75L146.87 50.73L146.5 50.8Z M149.17 56.6L148.42 50.51L147.92 50.59Z M150.42 55.53L149.85 50.37L149.39 50.44Z M152.06 56.01L151.42 50.05L150.94 50.12Z M153.14 53.8L152.83 49.82L152.32 49.89Z M154.64 52.82L154.43 49.69L154.03 49.74Z M156.14 53.13L155.89 49.5L155.51 49.54Z
      M157.74 53.74L157.48 49.31L156.98 49.36Z M159.43 55.44L159.04 49.14L158.46 49.2Z M160.69 54.21L160.35 49.03L159.98 49.07Z M162.32 55.53L161.99 48.83L161.41 48.89Z M163.68 53.83L163.52 48.66L162.97 48.71Z M165.16 53.35L165.05 48.58L164.54 48.62Z M166.59 52.33L166.54 48.51L166.12 48.54Z M168.17 55.12L168 48.39L167.52 48.42Z M169.62 52.83L169.67 48.23L169.09 48.26Z M171.02 51.81L171.13 48.13L170.57 48.15Z
      M172.55 53.36L172.58 48.13L172.11 48.15Z M174 51.53L174.16 48.15L173.65 48.16Z M175.54 53.13L175.72 48.03L175.12 48.04Z M176.97 53.06L177.17 48.07L176.61 48.08Z M178.52 54.85L178.73 48L178.2 48.01Z M180.03 53.78L180.31 47.99L179.76 47.99Z M181.52 54.6L181.8 47.97L181.34 47.96Z M182.93 51.52L183.26 48.01L182.71 48.01Z M184.45 54.5L184.8 48.02L184.4 48.01Z M185.93 51.45L186.21 48.08L185.85 48.07Z
      M187.41 51.95L187.74 48.21L187.36 48.2Z M189.03 51.65L189.44 48.25L188.93 48.22Z M190.37 54.94L190.99 48.33L190.46 48.3Z M191.87 54.64L192.52 48.41L191.99 48.38Z M193.25 55.31L194 48.46L193.46 48.42Z M194.96 52.5L195.51 48.56L195.01 48.52Z M196.21 55.22L196.96 48.7L196.56 48.67Z M197.99 52.03L198.51 48.9L198.05 48.86Z M199.35 53.35L199.99 48.94L199.6 48.9Z M200.7 54.87L201.61 49.18L201.03 49.12Z
      M202.14 54.56L202.98 49.28L202.52 49.23Z M203.69 54.26L204.53 49.47L204.05 49.41Z M205.12 55.18L206.13 49.66L205.58 49.59Z M206.34 56.57L207.49 49.91L207.07 49.86Z M208.1 55.25L209.04 50.21L208.66 50.15Z M209.35 56.9L210.58 50.34L210.19 50.28Z M211.29 54.07L212.06 50.59L211.69 50.53Z M212.35 56.42L213.59 50.84L213.06 50.75Z M213.87 56.75L215.15 51.21L214.63 51.11Z M215.27 56.83L216.5 51.35L216.14 51.28Z
      M216.64 57.55L218.06 51.72L217.55 51.62Z M218.02 58.42L219.55 51.97L219.19 51.9Z M219.52 58.27L221.07 52.36L220.56 52.25Z M221.03 58.66L222.58 52.75L222.18 52.66Z M222.53 58.2L224.01 52.98L223.53 52.86Z M223.87 59.05L225.44 53.4L225.07 53.31Z M225.86 57.57L227.01 53.79L226.65 53.69Z M227.33 57.71L228.5 54.17L228.05 54.05Z M228.17 60.28L229.97 54.58L229.5 54.46Z M230.1 58.96L231.52 54.96L230.97 54.81Z
      M230.98 61L232.93 55.33L232.37 55.17Z M232.56 61.14L234.45 55.77L233.96 55.62Z M234.67 59.3L235.88 56.25L235.41 56.11Z M236.04 59.65L237.31 56.64L236.77 56.47Z M236.43 63.29L238.67 57.15L238.32 57.03Z M238.79 60.74L240.04 57.68L239.68 57.55Z M240.3 61.05L241.61 58.11L241.12 57.94Z M240.48 65.11L243.05 58.73L242.63 58.58Z M242.08 65.01L244.47 59.19L244.13 59.06Z M243.4 65.61L245.98 59.79L245.42 59.57Z
      M245.83 63.49L247.32 60.34L246.91 60.18Z M246.24 66.22L248.65 60.9L248.27 60.74Z M247.3 67.63L250.15 61.56L249.69 61.36Z M249.78 65.58L251.53 62.17L251.09 61.97Z M250.04 68.62L252.9 62.75L252.53 62.58Z M251.61 68.44L254.24 63.26L253.84 63.08Z M253.02 68.9L255.61 64.04L255.17 63.83Z M254 70.21L257.02 64.64L256.54 64.41Z M255.77 70.15L258.43 65.35L258.06 65.16Z M257.52 69.83L259.77 66.05L259.32 65.82Z
      M258.36 71.38L261.15 66.77L260.64 66.5Z M259.3 72.63L262.39 67.51L261.97 67.28Z M260.53 73.46L263.75 68.16L263.42 67.97Z M262.67 72.62L265.09 68.92L264.69 68.69Z M263.03 74.86L266.37 69.82L265.9 69.54Z M264.11 75.88L267.7 70.56L267.26 70.29Z M265.87 75.74L268.99 71.38L268.49 71.07Z M268.25 74.92L270.33 72.26L269.87 71.95Z M268.86 76.51L271.53 73.02L271.1 72.73Z M269.98 77.44L272.74 73.86L272.38 73.61Z
      M270.8 78.83L273.97 74.81L273.6 74.55Z M272.66 78.78L275.2 75.73L274.84 75.46Z M273.53 80.16L276.54 76.64L276.14 76.33Z M275.57 79.94L277.73 77.59L277.36 77.29Z M274.78 83.1L278.82 78.48L278.49 78.21Z M275.79 84.14L279.99 79.53L279.62 79.22Z M277.63 84.18L281.24 80.46L280.83 80.09Z M277.43 86.51L282.26 81.44L281.97 81.18Z M278.92 87.06L283.44 82.59L283.08 82.25Z M280.68 87.3L284.52 83.6L284.25 83.34Z
      M281.73 88.24L285.58 84.67L285.32 84.41Z M283.55 88.5L286.64 85.79L286.39 85.53Z M284.61 89.37L287.66 86.81L287.4 86.53Z M285.34 90.78L288.79 88.07L288.43 87.67Z M285.28 92.6L289.71 89.21L289.33 88.76Z M286.02 93.81L290.77 90.28L290.41 89.85Z M287.55 94.48L291.72 91.54L291.41 91.14Z M287.41 96.38L292.6 92.85L292.26 92.4Z M290.73 95.67L293.44 93.98L293.21 93.65Z M290.42 97.59L294.29 95.25L294.02 94.85Z
      M289.48 99.88L295.12 96.47L294.9 96.13Z M292.39 99.74L295.99 97.83L295.74 97.41Z M291.34 101.98L296.8 99.08L296.57 98.68Z M294.58 101.78L297.5 100.41L297.31 100.06Z M293.42 103.99L298.24 101.78L298.01 101.34Z M294.77 104.86L298.95 103.16L298.7 102.65Z M294.19 106.72L299.59 104.53L299.42 104.15Z M293.91 108.32L300.12 105.94L299.98 105.6Z M294.32 109.58L300.75 107.43L300.54 106.88Z M295.02 110.74L301.16 108.81L301.02 108.41Z
      M295.86 111.83L301.71 110.24L301.55 109.73Z M298.39 112.51L302.21 111.72L302.04 111.14Z M296.36 114.52L302.55 113.25L302.4 112.67Z M299.6 115.13L302.89 114.6L302.81 114.21Z M298.38 116.8L303.18 116.07L303.11 115.7Z M296.6 118.46L303.44 117.58L303.37 117.16Z M300.27 119.35L303.67 119.17L303.61 118.68Z M299.98 120.76L303.86 120.6L303.82 120.17Z M299.5 122.21L303.94 122.19L303.9 121.65Z M299.24 123.63L304 123.76L303.99 123.2Z
    "
    fill="#171717"
    fill-opacity="0.11"
    filter="url(#inner-haze)"
    stroke-linecap="round"
    stroke-linejoin="round"
    vector-effect="non-scaling-stroke"
  />
  <path
    d="
      M302.97 124.96L304.01 125.09L336.88 124.93L304.01 124.83Z M302.2 126.42L303.95 126.68L339.68 127.58L303.96 126.27Z M302.96 128.03L303.92 128.2L327.95 129.64L303.93 127.98Z M303.01 129.5L303.71 129.8L330.56 132.14L303.75 129.34Z M302.56 130.95L303.61 131.27L337.83 135.45L303.66 130.91Z M302.56 132.43L303.37 132.68L329.75 136.75L303.41 132.44Z M301.84 133.86L303.09 134.26L333.31 139.89L303.15 133.95Z M301.55 135.29L302.84 135.79L329.12 141.44L302.93 135.38Z M300.86 136.68L302.39 137.19L332 144.65L302.45 136.97Z M301.39 138.31L302.01 138.69L331.77 147.03L302.12 138.31Z
      M300.27 139.55L301.55 140.14L325.7 147.67L301.65 139.81Z M299.95 140.97L301.13 141.61L333.27 152.67L301.27 141.22Z M299.48 142.39L300.53 142.94L329.36 153.85L300.62 142.7Z M298.48 143.68L299.98 144.5L323.83 154.26L300.12 144.17Z M298.25 145.1L299.42 145.79L329.11 158.93L299.54 145.51Z M297.25 146.29L298.7 147.2L325.23 159.75L298.87 146.86Z M297 147.8L298.06 148.59L321.95 160.61L298.26 148.21Z M296.41 149.22L297.35 149.88L323.72 164.16L297.47 149.65Z M295.77 150.63L296.55 151.22L321.1 165.35L296.67 151.02Z M295.32 152.01L295.85 152.59L319.25 166.67L296.07 152.22Z
      M294.11 153.03L294.99 153.83L314.34 166.09L295.21 153.5Z M293.28 154.28L294.17 155.13L319.12 171.84L294.4 154.79Z M292.54 155.64L293.24 156.32L316.43 172.7L293.41 156.08Z M291.35 156.61L292.35 157.53L319.89 177.96L292.52 157.31Z M290.7 158.07L291.37 158.79L316.6 178.38L291.55 158.56Z M289.24 158.72L290.47 159.97L314.72 179.52L290.71 159.67Z M288.72 160.22L289.5 161.16L307.34 176.07L289.78 160.84Z M287.36 161.04L288.48 162.33L306.32 177.87L288.77 162Z M286.94 162.74L287.49 163.41L307 181.27L287.65 163.23Z M285.91 163.84L286.34 164.52L302.74 179.99L286.6 164.25Z
      M284.8 164.79L285.31 165.61L302.84 182.74L285.62 165.3Z M283.72 165.86L284.25 166.68L300.18 182.86L284.51 166.43Z M282.45 166.74L283.1 167.74L302.67 188.37L283.41 167.45Z M281.42 167.83L282.06 168.73L297.91 186.1L282.25 168.55Z M280.19 168.7L280.91 169.74L302.41 194.18L281.12 169.56Z M278.91 169.53L279.73 170.83L294.93 188.52L280.05 170.55Z M277.53 170.23L278.51 171.74L298.49 195.92L278.81 171.5Z M276.97 172.01L277.27 172.68L291.41 190.31L277.55 172.46Z M275.57 172.59L276.13 173.6L294.82 197.74L276.41 173.39Z M274.62 173.79L274.95 174.56L294.39 200.43L275.27 174.32Z
      M273.4 174.8L273.7 175.42L287.46 194.38L273.89 175.29Z M271.92 175.33L272.45 176.38L290.06 201.38L272.73 176.19Z M270.67 176.19L271.19 177.2L284.16 196.15L271.41 177.05Z M269.66 177.33L269.97 177.99L282.17 196.39L270.15 177.88Z M268.38 178.06L268.71 178.78L285.83 205.42L268.9 178.66Z M266.93 178.59L267.39 179.65L283.72 205.74L267.67 179.48Z M265.41 178.97L266.04 180.4L281.01 204.93L266.37 180.2Z M264.48 180.42L264.71 181.15L278.33 204.18L264.99 180.99Z M262.8 180.58L263.4 181.99L278.21 207.79L263.7 181.82Z M261.39 181.13L262.03 182.73L275.41 206.61L262.41 182.52Z
      M260.54 182.68L260.69 183.41L273.39 206.71L261.06 183.21Z M259.18 183.37L259.39 184.12L269.7 203.63L259.67 183.97Z M257.66 183.69L258.09 184.82L269.98 208.1L258.31 184.71Z M255.96 183.81L256.6 185.49L268.44 209.3L256.9 185.34Z M254.74 184.75L255.2 186.15L268.23 213.11L255.53 185.99Z M253.54 185.48L253.97 186.87L263.42 206.82L254.32 186.7Z M252.2 186.41L252.54 187.41L261.64 207.42L252.73 187.32Z M250.8 186.75L251.24 188.09L262.54 213.63L251.49 187.98Z M249.33 187.15L249.79 188.61L261.53 215.94L250.05 188.5Z M248.17 188.57L248.26 189.27L257.01 210.08L248.6 189.13Z
      M246.71 188.83L246.99 189.81L258.51 218.36L247.19 189.73Z M245.05 188.9L245.4 190.44L255.68 216.36L245.83 190.28Z M243.67 189.55L244.04 191L252.59 213.3L244.35 190.89Z M242.4 190.48L242.63 191.46L250.94 213.91L242.86 191.37Z M241.06 191.1L241.25 191.97L249.08 213.78L241.46 191.9Z M239.66 191.51L239.76 192.41L247.83 215.32L240.14 192.28Z M238.18 191.89L238.33 192.9L246.1 215.73L238.66 192.79Z M236.46 191.69L236.82 193.41L245.77 220.63L237.17 193.3Z M235.32 193.03L235.42 193.83L242.06 214.7L235.68 193.75Z M233.86 193.26L234.02 194.24L240.88 216.52L234.27 194.17Z
      M232.37 193.64L232.5 194.74L240.97 223.13L232.86 194.63Z M230.87 193.9L231.03 195.16L239.78 225.52L231.4 195.06Z M229.36 194.05L229.59 195.57L237.27 223.14L229.93 195.48Z M228 194.68L228.1 195.96L234.12 217.99L228.53 195.85Z M226.31 194.66L226.55 196.35L233.7 223.88L226.91 196.26Z M224.94 195.03L225.18 196.69L230.5 217.82L225.49 196.61Z M223.65 196.08L223.69 197.13L228.8 218.03L224.07 197.04Z M222.05 196.22L222.21 197.41L229.33 228.55L222.41 197.37Z M220.6 196.58L220.73 197.67L227.03 226.27L220.93 197.63Z M219.08 196.69L219.23 198.11L224.11 220.91L219.51 198.05Z
      M217.56 196.63L217.76 198.41L224.2 229.95L218.05 198.35Z M216.02 197.15L216.14 198.62L220.67 221.65L216.44 198.57Z M214.71 198.17L214.66 198.99L220.58 230.5L215.04 198.92Z M213.05 197.73L213.09 199.19L218.03 226.52L213.51 199.12Z M211.65 198.07L211.7 199.39L216.06 224.76L212.02 199.34Z M210.17 198.77L210.15 199.65L214.93 229.19L210.45 199.6Z M208.65 198.57L208.64 199.85L213.21 229.26L209.04 199.79Z M207.18 198.81L207.13 200.08L210.44 222.05L207.57 200.02Z M205.64 199.12L205.65 200.37L209.22 226.21L205.95 200.33Z M204.14 199.57L204.11 200.57L208.23 232.59L204.42 200.53Z
      M202.74 199.65L202.64 200.73L205.42 222.68L203.08 200.68Z M201.18 199.82L201.16 200.9L204.61 231.54L201.43 200.87Z M199.74 200.01L199.72 201.09L202.87 231.09L199.98 201.06Z M198.2 199.83L198.17 201.12L201.19 232.03L198.47 201.1Z M196.65 199.94L196.58 201.31L198.68 223.86L196.95 201.27Z M195.17 200.51L195.09 201.46L197.5 230.83L195.39 201.44Z M193.65 200.71L193.52 201.54L195.62 229.27L193.9 201.51Z M192.15 200.11L192.1 201.6L193.82 227.3L192.38 201.58Z M190.62 200.62L190.53 201.77L192.03 226.78L190.84 201.75Z M189.03 200.68L188.97 201.79L190.2 226.41L189.18 201.78Z
      M187.62 200.97L187.48 201.82L188.62 226.94L187.83 201.81Z M186.08 200.13L186.01 201.91L186.95 228.11L186.27 201.91Z M184.47 200.87L184.35 201.9L185.09 228.34L184.65 201.9Z M183.01 200.78L182.88 201.96L183.51 233.18L183.18 201.96Z M181.45 200.99L181.33 202.02L181.69 234.24L181.58 202.02Z M179.97 201.05L179.77 201.94L179.96 229.74L180.17 201.94Z M178.51 200.66L178.3 201.98L178.32 226.21L178.7 201.99Z M176.91 200.8L176.78 201.91L176.42 232.34L177.01 201.91Z M175.49 200.88L175.35 201.96L174.88 227.98L175.59 201.96Z M173.97 200.52L173.81 201.93L173.28 223.42L174.05 201.94Z
      M172.49 200.31L172.32 201.81L171.22 233.83L172.55 201.82Z M170.91 200.91L170.75 201.79L169.71 226.89L170.98 201.8Z M169.41 200.17L169.2 201.74L167.71 231.88L169.45 201.76Z M167.92 200.15L167.6 201.67L166.12 229.45L168.04 201.7Z M166.34 200.01L166.09 201.45L164.34 228.88L166.4 201.47Z M164.89 200.35L164.68 201.37L162.58 230.4L164.94 201.39Z M163.37 200.15L163.18 201.23L160.92 229.15L163.38 201.24Z M161.81 199.88L161.47 201.18L159.56 224.22L161.91 201.22Z M160.31 199.48L159.99 200.96L157.13 231.04L160.33 200.99Z M158.82 199.59L158.55 200.9L155.88 226.78L158.81 200.92Z
      M157.31 199.7L157.05 200.68L154.07 227.6L157.33 200.72Z M155.95 198.88L155.54 200.53L152.54 226.37L155.94 200.58Z M154.36 198.99L154.02 200.24L150.52 228.09L154.37 200.29Z M152.9 198.46L152.47 200.03L149.07 225.75L152.88 200.08Z M151.33 198.25L150.95 199.82L147.76 222.22L151.23 199.86Z M149.86 198.53L149.53 199.68L146.25 221.58L149.82 199.73Z M148.38 198.14L148 199.37L144.63 220.89L148.34 199.43Z M146.85 198.04L146.53 199.13L142.74 221.73L146.79 199.17Z M145.32 198.2L145.05 198.82L140.6 224.21L145.36 198.88Z M143.8 197.92L143.53 198.59L137.88 229.05L143.81 198.64Z
      M142.46 196.89L141.99 198.35L137.05 224.11L142.34 198.42Z M140.87 196.72L140.39 197.91L136.04 219.9L140.83 198.01Z M139.48 196.06L138.98 197.66L133.09 225.53L139.27 197.73Z M137.9 196.1L137.39 197.33L131.17 225.89L137.83 197.43Z M136.5 195.62L136.01 196.97L130.16 222.68L136.35 197.05Z M134.92 195.91L134.59 196.68L128.47 222.37L134.85 196.75Z M133.52 195.37L133.11 196.29L126.27 224.05L133.44 196.38Z M132.1 194.69L131.65 195.95L123.56 227.29L131.88 196.01Z M130.59 194.43L130.13 195.45L122.78 223.16L130.46 195.54Z M129.16 193.77L128.67 195.07L122 219.18L128.9 195.14Z
      M127.57 193.87L127.2 194.74L119.3 222.23L127.41 194.8Z M126.11 193.48L125.68 194.21L116.87 224.17L126.08 194.33Z M124.9 192.15L124.26 193.8L116.16 220.18L124.49 193.87Z M123.55 191.76L122.9 193.39L114.37 220.35L123.14 193.46Z M121.85 191.83L121.35 192.86L114.48 214.02L121.64 192.96Z M120.46 191.2L119.91 192.42L109.87 222.07L120.15 192.5Z M118.83 191.22L118.42 191.87L108.68 219.91L118.75 191.99Z M117.59 190.29L117.01 191.29L107.32 218.43L117.38 191.42Z M116.09 190.07L115.57 190.85L105.58 218.03L115.97 191Z M114.67 189.52L114.21 190.29L102.68 220.46L114.49 190.4Z
      M113.4 188.65L112.85 189.71L100.97 219.77L113.07 189.79Z M112.12 187.78L111.38 189.14L99.78 217.77L111.68 189.27Z M110.52 187.54L109.96 188.57L101.47 208.89L110.18 188.66Z M109.4 186.4L108.55 187.88L98.47 211.46L108.9 188.03Z M108.07 185.84L107.25 187.38L95.74 213.3L107.46 187.47Z M106.45 185.71L105.81 186.65L93.64 213.4L106.14 186.8Z M104.84 185.33L104.34 186.03L94.91 206.18L104.62 186.17Z M103.77 184.3L103 185.38L88.93 214.6L103.4 185.58Z M102.59 183.13L101.61 184.64L90.1 207.88L101.96 184.82Z M100.89 183.12L100.3 183.98L89.72 204.62L100.54 184.1Z
      M99.47 182.76L99.06 183.31L88.65 203.03L99.25 183.41Z M98.54 181.09L97.56 182.45L83.96 207.56L97.92 182.65Z M97.18 180.46L96.29 181.75L82.28 206.74L96.53 181.89Z M95.59 180.4L95.04 181.01L82.44 202.97L95.33 181.18Z M94.33 179.45L93.65 180.23L80.77 202.04L93.97 180.43Z M93.27 178.25L92.27 179.5L75.31 207.28L92.6 179.7Z M92.1 177.26L90.99 178.63L78.83 198.08L91.32 178.84Z M90.4 177.15L89.73 177.83L72.02 205.14L90.04 178.03Z M89.47 175.89L88.48 177.01L74.38 198.2L88.8 177.23Z M87.82 175.63L87.26 176.09L71 199.75L87.57 176.31Z
      M86.66 174.68L86 175.23L69.5 198.55L86.35 175.48Z M85.48 173.61L84.77 174.28L65.98 199.88L85.05 174.49Z M84.64 172.3L83.55 173.37L68.82 192.98L83.9 173.63Z M83.53 171.21L82.32 172.43L66.48 192.77L82.62 172.67Z M81.94 170.9L81.28 171.53L65.96 190.49L81.46 171.67Z M80.95 169.64L80.02 170.47L58.85 195.81L80.28 170.69Z M79.57 168.94L78.79 169.49L58.74 192.81L79.14 169.79Z M78.71 167.78L77.76 168.53L56.25 192.7L78.06 168.8Z M77.34 166.97L76.61 167.59L56 189.82L76.77 167.74Z M76.22 165.9L75.52 166.42L53.68 189.17L75.72 166.62Z
      M75.33 164.66L74.38 165.35L51.89 188L74.64 165.61Z M74.77 163.23L73.41 164.35L55.69 181.55L73.59 164.54Z M73.09 162.65L72.23 163.18L51.48 182.59L72.5 163.47Z M72.6 161.14L71.34 162.01L46.29 184.52L71.59 162.3Z M71.07 160.52L70.33 160.99L49.55 178.89L70.49 161.18Z M70.3 159.16L69.3 159.68L44.89 179.94L69.59 160.03Z M69.74 157.61L68.29 158.48L42.16 179.17L68.55 158.81Z M68.71 156.57L67.45 157.34L43.59 175.37L67.62 157.56Z M67.39 155.67L66.62 156.07L45.44 171.33L66.76 156.26Z M66.94 154.14L65.71 154.84L37.62 174.06L65.83 155.03Z
      M66.03 153.03L64.93 153.58L42.89 168.01L65.08 153.8Z M65.01 151.87L64.01 152.24L37.73 168.61L64.23 152.6Z M64.49 150.49L63.28 151.06L41.92 163.61L63.4 151.26Z M64.13 148.89L62.53 149.62L38.68 162.79L62.65 149.84Z M63.28 147.68L61.82 148.27L40.67 159.29L61.95 148.51Z M61.84 146.8L61.15 146.88L40.12 157.28L61.34 147.29Z M61.48 145.25L60.45 145.59L33.41 157.84L60.54 145.79Z M61.11 143.77L59.91 144.11L36.25 154.11L60.02 144.38Z M60.94 142.29L59.28 142.74L30.35 154.06L59.41 143.07Z M60.01 141.05L58.85 141.25L31.08 151.24L58.98 141.62Z
      M59.54 139.66L58.38 139.82L33.03 148.16L58.5 140.21Z M58.96 138.22L57.83 138.43L28.05 147.09L57.89 138.64Z M58.98 136.72L57.45 136.99L30.92 143.91L57.51 137.22Z M58.81 135.25L57.15 135.43L31.8 141.3L57.23 135.8Z M58.06 133.84L56.83 133.93L24.49 140.26L56.88 134.22Z M57.41 132.48L56.55 132.46L24.28 137.77L56.59 132.76Z M58.01 130.86L56.34 130.94L32.1 134.16L56.37 131.2Z M57.75 129.4L56.17 129.36L30.27 132.01L56.21 129.73Z M56.8 128.02L56.11 127.97L20.69 130.34L56.13 128.17Z M56.69 126.47L55.97 126.38L24.65 127.46L55.97 126.6Z
      M57.79 124.99L56.02 124.85L26.6 124.98L56.02 125.12Z M57.64 123.55L56.02 123.37L21.26 122.4L56.01 123.62Z M57.83 122.06L56.18 121.74L22.62 119.81L56.15 122.17Z M57.25 120.53L56.29 120.24L24.1 117.36L56.25 120.63Z M58.1 119.11L56.41 118.67L30.81 115.61L56.35 119.11Z M57.65 117.58L56.69 117.27L23.64 112.16L56.64 117.57Z M58.41 116.21L56.83 115.8L24.44 109.7L56.79 116Z M58.23 114.7L57.14 114.34L29.37 108.27L57.09 114.56Z M58.54 113.23L57.55 112.8L29.66 105.87L57.47 113.13Z M59.32 111.84L58.01 111.24L24.35 101.77L57.89 111.65Z
      M59.12 110.25L58.45 109.82L34.37 102.35L58.32 110.22Z M60.24 109.08L58.86 108.48L27.29 97.51L58.79 108.69Z M60.39 107.54L59.44 107L27.94 95.09L59.32 107.3Z M61.09 106.19L59.93 105.6L32.32 94.21L59.85 105.78Z M61.99 104.93L60.66 104.19L34.72 92.66L60.56 104.42Z M62.41 103.53L61.3 102.84L36.87 91.24L61.18 103.1Z M62.88 102.1L61.97 101.38L38.78 89.71L61.76 101.78Z M63.81 100.86L62.69 100.11L40.58 88.14L62.58 100.33Z M64.72 99.66L63.46 98.79L40.37 85.51L63.34 99Z M64.85 98.01L64.15 97.41L35.55 80.02L64.01 97.65Z
      M65.85 96.95L64.96 96.24L35.94 77.64L64.84 96.43Z M66.28 95.38L65.81 94.88L38.78 76.68L65.64 95.13Z M67.7 94.48L66.73 93.59L39.5 74.31L66.54 93.84Z M68.4 93.18L67.63 92.38L46.1 76.49L67.41 92.68Z M69.32 92L68.56 91.18L47.03 74.54L68.35 91.44Z M70.48 91.06L69.56 90.05L48.67 73.25L69.31 90.35Z M71.75 90.15L70.57 88.86L47.87 69.81L70.28 89.2Z M72.34 88.72L71.56 87.74L47.93 67.08L71.27 88.07Z M72.98 87.15L72.61 86.5L53.21 68.87L72.31 86.83Z M73.91 86.04L73.54 85.44L49.73 62.85L73.29 85.7Z
      M75.17 85.16L74.68 84.39L51.49 61.59L74.4 84.68Z M76.16 84.01L75.7 83.29L57.95 65.22L75.45 83.54Z M77.76 83.4L76.85 82.2L54.71 58.7L76.62 82.42Z M78.81 82.43L77.93 81.23L59.37 60.89L77.71 81.43Z M79.52 80.96L79.05 80.25L60.37 59L78.89 80.39Z M81.05 80.35L80.24 79.2L64.67 60.9L80.05 79.35Z M82.48 79.71L81.47 78.22L65.43 58.79L81.23 78.42Z M83.04 78.11L82.61 77.28L66.9 57.68L82.34 77.49Z M84.13 77.07L83.81 76.44L66.47 54.01L83.6 76.6Z M85.82 76.72L85.05 75.46L70.62 56.22L84.84 75.62Z
      M86.68 75.34L86.33 74.55L68.42 49.92L86.05 74.75Z M88.27 74.94L87.6 73.6L72.45 52.23L87.24 73.85Z M89.58 74.29L88.87 72.84L74.72 52.31L88.51 73.09Z M90.28 72.7L90.02 72.05L77.49 53.24L89.79 72.21Z M91.96 72.4L91.33 71.15L76.67 48.4L91.08 71.31Z M93.23 71.63L92.68 70.37L80.69 51.35L92.35 70.57Z M94.28 70.56L93.87 69.64L79.27 45.6L93.65 69.77Z M95.74 69.86L95.31 68.77L80.01 42.86L95 68.95Z M96.81 68.67L96.56 67.97L85.02 47.84L96.33 68.1Z M98.13 68.11L97.84 67.26L86.97 47.85L97.57 67.41Z
      M99.77 67.82L99.31 66.53L84.78 39.77L98.95 66.72Z M100.99 66.88L100.67 65.81L86.54 39.03L100.3 66Z M102.41 66.45L102.02 65.16L91.99 45.81L101.61 65.37Z M103.64 65.52L103.31 64.44L92.45 42.68L102.99 64.6Z M105.16 65.13L104.72 63.85L92.35 38.21L104.44 63.98Z M106.39 64.12L106.14 63.19L92.69 34.47L105.84 63.33Z M107.94 64.14L107.46 62.62L96.26 38.16L107.12 62.77Z M109.39 63.61L108.83 61.9L96.89 34.97L108.52 62.04Z M110.63 62.52L110.32 61.29L99.71 36.73L109.96 61.45Z M111.83 61.65L111.59 60.81L103.24 40.8L111.4 60.89Z
      M113.26 61.24L113.04 60.22L103.86 37.73L112.71 60.35Z M114.82 60.86L114.51 59.66L106.3 38.86L114.24 59.77Z M116.17 60.25L115.97 59.1L107.16 36.28L115.57 59.25Z M117.53 59.38L117.37 58.48L107.09 30.76L117.06 58.59Z M119.06 59.43L118.74 58.07L111.27 37.4L118.45 58.17Z M120.36 58.52L120.16 57.6L113.02 37.13L119.95 57.67Z M121.81 57.79L121.74 57.02L113.14 31.66L121.4 57.13Z M123.31 57.84L123.04 56.55L115.39 33.22L122.78 56.64Z M124.58 56.77L124.57 56.09L114.94 25.82L124.2 56.21Z M126.3 56.91L126.03 55.66L119.83 35.42L125.83 55.72Z
      M127.71 56.52L127.47 55.23L121.02 33.57L127.21 55.31Z M129.21 56.18L129.02 54.78L120.18 24.05L128.65 54.88Z M130.6 55.62L130.46 54.38L123.61 29.93L130.08 54.49Z M132.07 55.25L131.93 54.01L125.45 29.99L131.59 54.11Z M133.52 54.89L133.35 53.69L125.62 23.66L133.1 53.76Z M134.87 53.98L134.81 53.25L127.72 24.62L134.6 53.3Z M136.47 54.32L136.26 52.98L131.02 31.1L136.06 53.03Z M137.87 53.78L137.73 52.6L132.53 30.11L137.5 52.65Z M139.42 53.84L139.21 52.33L132.4 21.52L138.99 52.38Z M140.82 52.76L140.84 51.95L136.21 30.57L140.47 52.03Z
      M142.5 53.42L142.33 51.7L136.78 24.72L141.99 51.76Z M143.88 52.68L143.75 51.34L139.33 28.8L143.5 51.39Z M145.41 52.79L145.29 51.11L140.69 26.87L144.92 51.17Z M146.93 52.2L146.89 50.73L142.91 28.98L146.48 50.8Z M148.28 51.22L148.37 50.52L143.15 20.1L147.97 50.58Z M149.83 51.77L149.8 50.38L145.13 21.83L149.44 50.44Z M151.32 51.02L151.33 50.06L147.64 26.23L151.03 50.1Z M152.76 51.16L152.75 49.83L148.55 21.22L152.4 49.88Z M154.44 51.36L154.4 49.69L151.17 26.53L154.06 49.74Z M155.91 51.26L155.88 49.5L152.73 25.65L155.52 49.54Z
      M157.38 50.58L157.35 49.32L153.73 19.17L157.11 49.35Z M158.92 50.68L158.97 49.15L155.89 22.7L158.53 49.19Z M160.32 50.56L160.36 49.03L157.33 20.8L159.98 49.07Z M161.79 49.89L161.9 48.84L159.74 27.72L161.49 48.88Z M163.38 50.25L163.37 48.67L161.1 23.31L163.12 48.69Z M164.9 49.93L164.95 48.59L162.37 16.97L164.65 48.61Z M166.38 49.3L166.47 48.52L164.83 26.84L166.19 48.54Z M167.84 49.68L167.87 48.39L165.86 17.62L167.65 48.41Z M169.44 49.35L169.51 48.24L168.01 22.6L169.25 48.25Z M170.9 49.16L171.05 48.13L169.77 24.68L170.65 48.15Z
      M172.39 49.14L172.49 48.14L171.46 24.97L172.21 48.15Z M173.95 49.6L174.04 48.15L173.01 19.13L173.77 48.16Z M175.44 49.04L175.53 48.03L174.82 21.92L175.31 48.03Z M176.91 49.7L177.02 48.07L176.5 23.27L176.76 48.08Z M178.47 48.84L178.57 48L178.22 16.11L178.36 48.01Z M180.04 49.44L180.21 47.99L180.04 23.84L179.86 47.99Z M181.56 49.61L181.68 47.97L181.81 16.79L181.46 47.97Z M182.97 49.45L183.15 48.01L183.31 26.27L182.82 48.01Z M184.56 49.45L184.8 48.02L185.33 15.98L184.39 48.01Z M186 49.01L186.24 48.08L186.73 24.93L185.82 48.07Z
      M187.49 49.97L187.76 48.22L188.67 18.71L187.34 48.2Z M189.13 49.45L189.32 48.24L190.64 16.67L189.06 48.23Z M190.67 49.37L190.93 48.32L191.91 26.44L190.52 48.3Z M192.18 49.69L192.46 48.41L194.2 16.86L192.05 48.39Z M193.68 49.2L193.94 48.45L195.72 19.72L193.52 48.43Z M195.21 49.25L195.41 48.55L197.41 20.63L195.11 48.53Z M196.65 50.01L196.88 48.7L199.11 20.97L196.65 48.68Z M198.14 50.37L198.48 48.9L200.78 21.85L198.08 48.86Z M199.68 50.08L200.01 48.94L202.31 23.95L199.59 48.9Z M201.23 50.05L201.45 49.16L204.6 18.95L201.19 49.13Z
      M202.59 50.63L202.96 49.28L205.22 27.97L202.54 49.23Z M204.21 50.1L204.47 49.47L207.87 20.57L204.11 49.42Z M205.69 50.91L205.96 49.64L208.88 26.76L205.76 49.61Z M207.16 50.75L207.51 49.92L210.41 27.52L207.05 49.85Z M208.71 51.14L209.06 50.21L213.31 20.21L208.64 50.15Z M210.25 51.18L210.49 50.33L214.91 21.49L210.28 50.29Z M211.61 52.16L212 50.59L216.85 20.42L211.75 50.54Z M213.04 52.42L213.53 50.83L218.22 22.52L213.12 50.76Z M214.6 52.74L215.1 51.2L220.6 19.83L214.68 51.12Z M216.14 52.24L216.43 51.34L221.27 25.29L216.2 51.29Z
      M217.59 52.76L217.92 51.7L222.82 26.43L217.69 51.65Z M219.06 53.42L219.56 51.97L224.78 25.89L219.17 51.89Z M220.46 53.93L220.97 52.34L226.54 25.86L220.65 52.27Z M222.09 54L222.51 52.73L227.93 28.13L222.24 52.67Z M223.6 53.63L223.96 52.97L229.53 28.33L223.57 52.87Z M225 54.4L225.4 53.39L231.14 29.18L225.11 53.32Z M226.4 55.45L227 53.78L234.55 23.26L226.66 53.7Z M227.83 55.78L228.48 54.16L234.61 29.96L228.06 54.05Z M229.48 55.45L229.93 54.57L237.21 27.03L229.54 54.47Z M231.06 55.55L231.35 54.91L238.32 29.77L231.14 54.86Z
      M232.45 55.94L232.76 55.28L240.53 28.18L232.55 55.22Z M233.81 56.99L234.35 55.74L240.7 34.15L234.05 55.65Z M235.18 57.67L235.84 56.24L243.09 32.29L235.44 56.12Z M236.64 57.8L237.23 56.62L245.28 30.92L236.84 56.49Z M238.28 57.72L238.61 57.13L245.65 35.53L238.38 57.05Z M239.31 59.22L239.96 57.65L249.54 29.33L239.76 57.58Z M241 59.06L241.54 58.09L251.62 29.03L241.2 57.97Z M242.43 59.79L243.04 58.73L253.92 28.32L242.64 58.58Z M243.9 60.18L244.46 59.18L252.24 38.03L244.14 59.07Z M245.23 60.9L245.9 59.76L254.81 36.21L245.5 59.6Z
      M246.46 61.91L247.23 60.31L256.02 37.98L247 60.21Z M248.08 61.74L248.66 60.91L260.36 31.89L248.25 60.74Z M249.23 63.08L250.11 61.54L260.08 37.5L249.72 61.38Z M250.9 63.01L251.42 62.12L264.2 32.55L251.2 62.02Z M252.07 64.1L252.9 62.75L265.87 33.41L252.53 62.58Z M253.47 64.42L254.19 63.24L266.87 35.4L253.89 63.1Z M254.79 65.18L255.55 64.01L265.16 43.4L255.23 63.86Z M256.22 65.66L256.89 64.58L268.51 40.57L256.67 64.47Z M257.77 66.2L258.44 65.35L268.16 45.62L258.05 65.16Z M258.94 67.1L259.66 66L270.9 44.07L259.43 65.88Z
      M260.44 67.5L261.01 66.69L274.23 41.68L260.79 66.57Z M261.83 68.03L262.33 67.47L275.49 43.19L262.04 67.31Z M263.07 68.97L263.78 68.18L278.72 41.33L263.38 67.95Z M264.55 69.39L265.09 68.92L277.45 47.26L264.69 68.69Z M265.49 70.76L266.31 69.79L279.05 48.16L265.96 69.58Z M266.69 71.7L267.65 70.53L282.75 45.72L267.31 70.32Z M268.11 72.22L268.91 71.33L282.76 49.19L268.57 71.12Z M269.48 73.05L270.2 72.17L283.6 51.55L270.01 72.04Z M270.45 74.16L271.46 72.98L287.14 49.45L271.17 72.78Z M271.61 75.1L272.68 73.82L288.32 51.1L272.44 73.65Z
      M273.11 75.62L273.91 74.76L289.53 52.75L273.66 74.59Z M274.01 76.96L275.16 75.7L288.78 57.04L274.88 75.49Z M275.61 77.44L276.5 76.61L296.35 50.37L276.18 76.36Z M276.95 78.19L277.67 77.54L297.5 52.21L277.43 77.34Z M278.13 78.99L278.74 78.42L295.51 57.68L278.57 78.28Z M278.91 80.44L279.96 79.5L295.27 61.04L279.66 79.25Z M279.93 81.55L281.19 80.41L300.1 58.4L280.87 80.14Z M281.06 82.49L282.26 81.44L298.57 63.07L281.98 81.19Z M282.7 83.02L283.4 82.55L305.71 58.4L283.13 82.3Z M283.3 84.59L284.47 83.55L305.57 61.61L284.3 83.39Z
      M284.27 85.71L285.57 84.66L307.8 62.29L285.33 84.42Z M285.81 86.33L286.6 85.75L309.89 63.26L286.43 85.58Z M286.33 87.78L287.64 86.78L311.52 64.49L287.43 86.56Z M287.84 88.56L288.69 87.96L309.38 69.46L288.53 87.78Z M288.53 89.83L289.64 89.13L306.89 74.16L289.4 88.84Z M289.46 90.99L290.66 90.14L311.85 72.66L290.53 89.99Z M290.41 92.24L291.68 91.48L309.32 77.45L291.45 91.19Z M291.39 93.41L292.56 92.8L319.53 72.38L292.3 92.45Z M292.49 94.41L293.45 93.99L320.25 74.6L293.2 93.64Z M292.89 95.91L294.25 95.19L315.14 80.76L294.06 94.91Z
      M293.9 97.02L295.1 96.45L314.63 83.59L294.91 96.16Z M295.17 98.04L295.94 97.74L320.15 82.73L295.79 97.49Z M295.63 99.49L296.75 98.99L322.24 84.05L296.62 98.77Z M296.45 100.75L297.47 100.36L327.76 83.63L297.34 100.11Z M296.7 102.3L298.21 101.72L325.85 87.3L298.05 101.41Z M297.43 103.58L298.9 103.07L324.69 90.44L298.74 102.74Z M298.45 104.81L299.58 104.52L326.9 92.06L299.42 104.16Z M299.26 106.09L300.09 105.88L322.02 96.64L300 105.66Z M299.08 107.76L300.69 107.26L323.18 98.52L300.61 107.06Z M299.8 109.06L301.13 108.72L333.27 97.31L301.05 108.49Z
      M300.34 110.4L301.68 110.13L331.81 100.32L301.58 109.84Z M301.26 111.68L302.17 111.56L333.7 102.34L302.09 111.3Z M301.65 113.17L302.53 113.18L326.02 106.96L302.42 112.75Z M301.11 114.79L302.88 114.52L326.77 109.06L302.82 114.29Z M301.68 116.17L303.18 116.05L334.31 109.91L303.12 115.72Z M302.16 117.57L303.43 117.5L333.63 112.53L303.38 117.24Z M302.39 119.08L303.66 119.05L330.94 115.45L303.62 118.8Z M302.14 120.55L303.86 120.57L331.54 117.72L303.83 120.21Z M302.33 122.02L303.93 122.04L328.46 120.34L303.91 121.8Z M302.74 123.52L304 123.59L338.84 122.37L303.99 123.37Z
    "
    fill="#171717"
    fill-opacity="0.88"
    stroke-linecap="round"
    stroke-linejoin="round"
    vector-effect="non-scaling-stroke"
  />
</svg>
